<svg width="38" height="35" viewBox="0 0 38 35" fill="none" xmlns="http://www.w3.org/2000/svg">
<path d="M18.9999 0.5C24.3157 0.5 28.6151 4.75869 28.6151 10C28.6151 15.2413 24.3157 19.5 18.9999 19.5C13.6841 19.4999 9.38464 15.2413 9.38464 10C9.38464 4.75873 13.6841 0.500066 18.9999 0.5Z" stroke="black"/>
<mask id="path-2-inside-1_43_942" fill="white">
<path fill-rule="evenodd" clip-rule="evenodd" d="M38 35H0C1.40332 27.0736 9.37549 21 19 21C28.6245 21 36.5967 27.0736 38 35Z"/>
</mask>
<path d="M0 35L-0.984687 34.8257L-1.1926 36H0V35ZM38 35V36H39.1926L38.9847 34.8257L38 35ZM0 36H38V34H0V36ZM0.984687 35.1743C2.28648 27.8214 9.7562 22 19 22V20C8.99478 20 0.520162 26.3258 -0.984687 34.8257L0.984687 35.1743ZM19 22C28.2438 22 35.7135 27.8214 37.0153 35.1743L38.9847 34.8257C37.4798 26.3258 29.0052 20 19 20V22Z" fill="black" mask="url(#path-2-inside-1_43_942)"/>
</svg>
